<svg xmlns="http://www.w3.org/2000/svg" width="1200" height="120" viewBox="0 0 120 120">
  <style>
    .H{transform: translate(0,0)}
    .A{transform: translate(6px,0)}
    .C{transform: translate(12px,0)}
    .K{transform: translate(18px,0)}
    .E{transform: translate(24px,0)}
    .R{transform: translate(30px,0)}
    .S{transform: translate(36px,0)}
    .M{transform: translate(42px,0)}
    .P{transform: translate(48px,0)}
    .L{transform: translate(54px,0)}
    .O{transform: translate(60px,0)}
  </style>
  <g  fill="rgba(0,0,0,0.4)" stroke="red" stroke-width="0.1" transform="scale(10,10)">
    <g class="H">
      <path d="M0,0 L0,7 L1,7 L1,0z" />
      <path d="M4,0 L4,7 L5,7 L5,0z" />
      <path d="M1,4 L4,4 L4,3 L1,3z" />
    </g>
    <g class="A">
      <path d="M0,7 L1,7 L3,0 L2,0z" />
      <path d="M1,3.5 L4,3.5 L4,4.5 L1,4.5z" />
      <path d="M4,7 L5,7 L3,0 L2,0z" />
    </g>
    <g class="C">
      <path d="M5,2 L4,0 L1,0 L0,2 L0,5 L1,7 L4,7 L5,5 L4,5 L3.5,6 L1.5,6 L1,5 L1,2 L1.5,1 L3.5,1 L4,2z" />
    </g>
    <g class="K">
      <path d="M0,0 L0,7 L1,7 L1,0z" />
      <path d="M4,0 L1,3.5 L4,7 L5,7 L2,3.5 L5,0 z" />
    </g>
    <g class="E">
      <path d="M0,0 L0,7 L1,7 L1,0z" />
      <path d="M1,4 L5,4 L5,3 L1,3z" />
      <path d="M1,0 L5,0 L5,1 L1,1z" />
      <path d="M1,6 L5,6 L5,7 L1,7z" />
    </g>
    <g class="R">
      <path d="M0,0 L0,7 L1,7 L1,0z" />
      <path d="M1,0 L4,0 L5,1 L5,3 L4,4 L1,4 L1,3 L3.5,3 L4,2.5 L4,1.5 L3.5,1 L1,1z" />
      <path d="M3,4 L4,7 L5,7 L4,4z" />
    </g>
    <g class="S">
      <path d="M5,1 L4,0 L1,0 L0,1 L0,3 L1,4 L3.5,4 L4,4.5 L4,5.5 L3.5,6 L1.5,6 L1,5.5 L0,6 L1,7 L4,7 L5,6 L5,4 L4,3 L1.5,3 L1,2.5 L1,1.5 L1.5,1 L3.5,1 L4,1.5z" />
    </g>

    <g class="M">
      <path d="M0,7 L0,0 L1,0 L1,7z" />
      <path d="M4,0 L4,7 L5,7 L5,0z" />
      <path d="M0,0 L1,0 L3,5 L2,5z" />
      <path d="M4,0 L5,0 L3,5 L2,5z" />
    </g>

    <g class="P">
      <path d="M0,0 L0,7 L1,7 L1,0z" />
      <path d="M1,0 L4,0 L5,1 L5,3 L4,4 L1,4 L1,3 L3.5,3 L4,2.5 L4,1.5 L3.5,1 L1,1z" />
    </g>

    <g class="L">
      <path d="M0,0 L0,7 L5,7 L5,6 L1,6 L1,0z" />
    </g>

    <g class="O">
      <path d="M5,5 L5,2 L4,0 L1,0 L0,2 L0,5 L1,7 L4,7 L5,5 L4,5 L3.5,6 L1.5,6 L1,5 L1,2 L1.5,1 L3.5,1 L4,2 L4,5z" />
    </g>
  </g>
</svg>
